<svg width="247" height="56" viewBox="0 0 247 56" fill="none" xmlns="http://www.w3.org/2000/svg">
<path d="M84 2.24L65.8583 56H56.126L42.0472 14.7335L27.9685 56H18.1417L0 2.24H9.44882L23.4331 44.3583L37.9843 2.24H46.5827L60.8504 44.6423L75.1181 2.24H84Z" fill="#8A8A8A"/>
<path d="M57.7126 42.6901H27.6929L21.7874 56H12.437L38.0276 0H47.4764L73.1654 56H63.5197L57.7126 42.6901ZM54.3661 35.0986L42.752 8.67606L31.0394 35.0986H54.3661Z" fill="#8A8A8A"/>
<path d="M116.152 9.368L111.544 23H109.072L105.496 12.536L101.92 23H99.424L94.816 9.368H97.216L100.768 20.048L104.464 9.368H106.648L110.272 20.12L113.896 9.368H116.152ZM127.094 19.76H119.774L118.334 23H116.054L122.294 9.368H124.598L130.862 23H128.51L127.094 19.76ZM126.278 17.912L123.446 11.48L120.59 17.912H126.278ZM142.292 23L139.364 18.92C139.236 18.936 139.028 18.944 138.74 18.944H135.5V23H133.172V9.368H138.74C140.548 9.368 141.972 9.792 143.012 10.64C144.052 11.488 144.572 12.664 144.572 14.168C144.572 15.208 144.308 16.096 143.78 16.832C143.268 17.568 142.532 18.12 141.572 18.488L144.812 23H142.292ZM138.596 17.048C139.78 17.048 140.676 16.8 141.284 16.304C141.908 15.808 142.22 15.096 142.22 14.168C142.22 13.24 141.908 12.528 141.284 12.032C140.676 11.536 139.78 11.288 138.596 11.288H135.5V17.048H138.596ZM148.289 9.368H154.217C155.737 9.368 157.065 9.648 158.201 10.208C159.337 10.768 160.209 11.568 160.817 12.608C161.441 13.632 161.753 14.824 161.753 16.184C161.753 17.544 161.441 18.744 160.817 19.784C160.209 20.808 159.337 21.6 158.201 22.16C157.065 22.72 155.737 23 154.217 23H148.289V9.368ZM154.121 21.056C155.785 21.056 157.081 20.624 158.009 19.76C158.937 18.88 159.401 17.688 159.401 16.184C159.401 14.664 158.937 13.472 158.009 12.608C157.081 11.728 155.785 11.288 154.121 11.288H150.617V21.056H154.121ZM174.261 23L171.333 18.92C171.205 18.936 170.997 18.944 170.709 18.944H167.469V23H165.141V9.368H170.709C172.517 9.368 173.941 9.792 174.981 10.64C176.021 11.488 176.541 12.664 176.541 14.168C176.541 15.208 176.277 16.096 175.749 16.832C175.237 17.568 174.501 18.12 173.541 18.488L176.781 23H174.261ZM170.565 17.048C171.749 17.048 172.645 16.8 173.253 16.304C173.877 15.808 174.189 15.096 174.189 14.168C174.189 13.24 173.877 12.528 173.253 12.032C172.645 11.536 171.749 11.288 170.565 11.288H167.469V17.048H170.565ZM186.402 23.192C185.01 23.192 183.746 22.888 182.61 22.28C181.474 21.672 180.586 20.84 179.946 19.784C179.306 18.712 178.986 17.512 178.986 16.184C178.986 14.856 179.306 13.664 179.946 12.608C180.586 11.536 181.474 10.696 182.61 10.088C183.746 9.48 185.01 9.176 186.402 9.176C187.81 9.176 189.074 9.48 190.194 10.088C191.33 10.696 192.218 11.536 192.858 12.608C193.498 13.664 193.818 14.856 193.818 16.184C193.818 17.512 193.498 18.712 192.858 19.784C192.218 20.84 191.33 21.672 190.194 22.28C189.074 22.888 187.81 23.192 186.402 23.192ZM186.402 21.176C187.362 21.176 188.226 20.96 188.994 20.528C189.762 20.096 190.362 19.504 190.794 18.752C191.242 18 191.466 17.144 191.466 16.184C191.466 15.224 191.242 14.368 190.794 13.616C190.362 12.864 189.762 12.272 188.994 11.84C188.226 11.408 187.362 11.192 186.402 11.192C185.442 11.192 184.578 11.408 183.81 11.84C183.042 12.272 182.434 12.864 181.986 13.616C181.554 14.368 181.338 15.224 181.338 16.184C181.338 17.144 181.554 18 181.986 18.752C182.434 19.504 183.042 20.096 183.81 20.528C184.578 20.96 185.442 21.176 186.402 21.176ZM206.779 15.92C207.595 16.144 208.219 16.544 208.651 17.12C209.099 17.696 209.323 18.424 209.323 19.304C209.323 20.488 208.859 21.4 207.931 22.04C207.019 22.68 205.683 23 203.923 23H197.203V9.368H203.539C205.155 9.368 206.403 9.688 207.283 10.328C208.163 10.952 208.603 11.808 208.603 12.896C208.603 13.6 208.443 14.208 208.123 14.72C207.803 15.232 207.355 15.632 206.779 15.92ZM199.531 11.144V15.224H203.299C204.243 15.224 204.971 15.048 205.483 14.696C206.011 14.344 206.275 13.84 206.275 13.184C206.275 12.512 206.019 12.008 205.507 11.672C204.995 11.32 204.259 11.144 203.299 11.144H199.531ZM203.803 21.224C205.915 21.224 206.971 20.52 206.971 19.112C206.971 17.704 205.915 17 203.803 17H199.531V21.224H203.803ZM222.872 21.056V23H212.648V9.368H222.608V11.288H214.976V15.128H221.768V17.024H214.976V21.056H222.872ZM101.728 51.192C100.368 51.192 99.184 50.952 98.176 50.472C97.184 49.992 96.416 49.32 95.872 48.456C95.344 47.576 95.08 46.544 95.08 45.36C95.08 43.84 95.432 42.456 96.136 41.208C96.856 39.96 97.856 38.976 99.136 38.256C100.432 37.536 101.912 37.176 103.576 37.176C104.744 37.176 105.776 37.368 106.672 37.752C107.568 38.136 108.256 38.688 108.736 39.408L107.056 40.8C106.672 40.272 106.168 39.872 105.544 39.6C104.936 39.312 104.216 39.168 103.384 39.168C102.184 39.168 101.128 39.44 100.216 39.984C99.32 40.528 98.632 41.264 98.152 42.192C97.672 43.12 97.432 44.136 97.432 45.24C97.432 46.456 97.824 47.416 98.608 48.12C99.408 48.808 100.512 49.152 101.92 49.152C103.536 49.152 104.872 48.616 105.928 47.544L107.368 49.008C106.68 49.744 105.848 50.296 104.872 50.664C103.912 51.016 102.864 51.192 101.728 51.192ZM115.905 51.192C114.545 51.192 113.369 50.952 112.377 50.472C111.401 49.976 110.649 49.288 110.121 48.408C109.609 47.528 109.353 46.512 109.353 45.36C109.353 43.84 109.705 42.456 110.409 41.208C111.113 39.96 112.105 38.976 113.385 38.256C114.665 37.536 116.121 37.176 117.753 37.176C119.129 37.176 120.305 37.424 121.281 37.92C122.273 38.4 123.025 39.08 123.537 39.96C124.065 40.824 124.329 41.84 124.329 43.008C124.329 44.528 123.977 45.912 123.273 47.16C122.569 48.408 121.577 49.392 120.297 50.112C119.017 50.832 117.553 51.192 115.905 51.192ZM116.097 49.176C117.281 49.176 118.313 48.904 119.193 48.36C120.089 47.816 120.777 47.088 121.257 46.176C121.737 45.248 121.977 44.232 121.977 43.128C121.977 41.928 121.593 40.976 120.825 40.272C120.057 39.552 118.969 39.192 117.561 39.192C116.393 39.192 115.361 39.464 114.465 40.008C113.585 40.552 112.905 41.288 112.425 42.216C111.945 43.144 111.705 44.16 111.705 45.264C111.705 46.448 112.089 47.4 112.857 48.12C113.625 48.824 114.705 49.176 116.097 49.176ZM141.131 37.368L138.395 51H136.475L130.571 41.16L128.603 51H126.275L129.011 37.368H130.931L136.835 47.208L138.803 37.368H141.131ZM147.304 51.192C146.232 51.192 145.208 51.048 144.232 50.76C143.272 50.456 142.536 50.08 142.024 49.632L143.008 47.736C143.552 48.2 144.232 48.568 145.048 48.84C145.864 49.096 146.704 49.224 147.568 49.224C148.608 49.224 149.432 49.048 150.04 48.696C150.664 48.344 150.976 47.832 150.976 47.16C150.976 46.648 150.736 46.256 150.256 45.984C149.776 45.712 149.048 45.44 148.072 45.168C147.176 44.896 146.456 44.648 145.912 44.424C145.384 44.184 144.92 43.84 144.52 43.392C144.136 42.928 143.944 42.328 143.944 41.592C143.944 40.232 144.48 39.16 145.552 38.376C146.624 37.576 148.072 37.176 149.896 37.176C150.792 37.176 151.632 37.272 152.416 37.464C153.216 37.656 153.888 37.928 154.432 38.28L153.496 40.2C152.504 39.496 151.256 39.144 149.752 39.144C148.696 39.144 147.848 39.336 147.208 39.72C146.584 40.104 146.272 40.624 146.272 41.28C146.272 41.808 146.504 42.2 146.968 42.456C147.448 42.712 148.184 42.984 149.176 43.272C150.056 43.528 150.768 43.776 151.312 44.016C151.872 44.24 152.344 44.576 152.728 45.024C153.128 45.472 153.328 46.064 153.328 46.8C153.328 47.696 153.072 48.48 152.56 49.152C152.064 49.808 151.36 50.312 150.448 50.664C149.552 51.016 148.504 51.192 147.304 51.192ZM162.022 51.192C160.342 51.192 159.038 50.784 158.11 49.968C157.182 49.136 156.718 47.992 156.718 46.536C156.718 46.072 156.766 45.576 156.862 45.048L158.398 37.368H160.726L159.19 45C159.094 45.448 159.046 45.864 159.046 46.248C159.046 47.192 159.318 47.912 159.862 48.408C160.422 48.888 161.222 49.128 162.262 49.128C163.43 49.128 164.358 48.8 165.046 48.144C165.734 47.488 166.222 46.448 166.51 45.024L168.046 37.368H170.326L168.766 45.192C167.966 49.192 165.718 51.192 162.022 51.192ZM174.855 37.368H177.159L174.807 49.056H182.127L181.743 51H172.119L174.855 37.368ZM187.488 39.288H182.832L183.216 37.368H194.856L194.472 39.288H189.816L187.464 51H185.136L187.488 39.288ZM207.834 37.368C209.642 37.368 211.066 37.792 212.106 38.64C213.146 39.488 213.666 40.664 213.666 42.168C213.666 43.688 213.146 44.872 212.106 45.72C211.066 46.568 209.642 46.992 207.834 46.992H204.594V51H202.266V37.368H207.834ZM207.69 45.048C208.874 45.048 209.77 44.8 210.378 44.304C211.002 43.808 211.314 43.096 211.314 42.168C211.314 41.24 211.002 40.528 210.378 40.032C209.77 39.536 208.874 39.288 207.69 39.288H204.594V45.048H207.69ZM226.339 51L223.411 46.92C223.283 46.936 223.075 46.944 222.787 46.944H219.547V51H217.219V37.368H222.787C224.595 37.368 226.019 37.792 227.059 38.64C228.099 39.488 228.619 40.664 228.619 42.168C228.619 43.208 228.355 44.096 227.827 44.832C227.315 45.568 226.579 46.12 225.619 46.488L228.859 51H226.339ZM222.643 45.048C223.827 45.048 224.723 44.8 225.331 44.304C225.955 43.808 226.267 43.096 226.267 42.168C226.267 41.24 225.955 40.528 225.331 40.032C224.723 39.536 223.827 39.288 222.643 39.288H219.547V45.048H222.643ZM238.48 51.192C237.088 51.192 235.824 50.888 234.688 50.28C233.552 49.672 232.664 48.84 232.024 47.784C231.384 46.712 231.064 45.512 231.064 44.184C231.064 42.856 231.384 41.664 232.024 40.608C232.664 39.536 233.552 38.696 234.688 38.088C235.824 37.48 237.088 37.176 238.48 37.176C239.888 37.176 241.152 37.48 242.272 38.088C243.408 38.696 244.296 39.536 244.936 40.608C245.576 41.664 245.896 42.856 245.896 44.184C245.896 45.512 245.576 46.712 244.936 47.784C244.296 48.84 243.408 49.672 242.272 50.28C241.152 50.888 239.888 51.192 238.48 51.192ZM238.48 49.176C239.44 49.176 240.304 48.96 241.072 48.528C241.84 48.096 242.44 47.504 242.872 46.752C243.32 46 243.544 45.144 243.544 44.184C243.544 43.224 243.32 42.368 242.872 41.616C242.44 40.864 241.84 40.272 241.072 39.84C240.304 39.408 239.44 39.192 238.48 39.192C237.52 39.192 236.656 39.408 235.888 39.84C235.12 40.272 234.512 40.864 234.064 41.616C233.632 42.368 233.416 43.224 233.416 44.184C233.416 45.144 233.632 46 234.064 46.752C234.512 47.504 235.12 48.096 235.888 48.528C236.656 48.96 237.52 49.176 238.48 49.176Z" fill="#1E1E1E"/>
</svg>
