<svg width="277" height="56" viewBox="0 0 277 56" fill="none" xmlns="http://www.w3.org/2000/svg">
<path d="M22.152 23.368L17.544 37H15.072L11.496 26.536L7.92 37H5.424L0.816 23.368H3.216L6.768 34.048L10.464 23.368H12.648L16.272 34.12L19.896 23.368H22.152ZM33.0941 33.76H25.7741L24.3341 37H22.0541L28.2941 23.368H30.5981L36.8621 37H34.5101L33.0941 33.76ZM32.2781 31.912L29.4461 25.48L26.5901 31.912H32.2781ZM48.2918 37L45.3638 32.92C45.2358 32.936 45.0278 32.944 44.7398 32.944H41.4998V37H39.1718V23.368H44.7398C46.5478 23.368 47.9718 23.792 49.0118 24.64C50.0518 25.488 50.5718 26.664 50.5718 28.168C50.5718 29.208 50.3078 30.096 49.7798 30.832C49.2678 31.568 48.5318 32.12 47.5718 32.488L50.8118 37H48.2918ZM44.5958 31.048C45.7798 31.048 46.6758 30.8 47.2838 30.304C47.9078 29.808 48.2198 29.096 48.2198 28.168C48.2198 27.24 47.9078 26.528 47.2838 26.032C46.6758 25.536 45.7798 25.288 44.5958 25.288H41.4998V31.048H44.5958ZM54.2889 23.368H60.2169C61.7369 23.368 63.0649 23.648 64.2009 24.208C65.3369 24.768 66.2089 25.568 66.8169 26.608C67.4409 27.632 67.7529 28.824 67.7529 30.184C67.7529 31.544 67.4409 32.744 66.8169 33.784C66.2089 34.808 65.3369 35.6 64.2009 36.16C63.0649 36.72 61.7369 37 60.2169 37H54.2889V23.368ZM60.1209 35.056C61.7849 35.056 63.0809 34.624 64.0089 33.76C64.9369 32.88 65.4009 31.688 65.4009 30.184C65.4009 28.664 64.9369 27.472 64.0089 26.608C63.0809 25.728 61.7849 25.288 60.1209 25.288H56.6169V35.056H60.1209ZM80.2605 37L77.3325 32.92C77.2045 32.936 76.9965 32.944 76.7085 32.944H73.4685V37H71.1405V23.368H76.7085C78.5165 23.368 79.9405 23.792 80.9805 24.64C82.0205 25.488 82.5405 26.664 82.5405 28.168C82.5405 29.208 82.2765 30.096 81.7485 30.832C81.2365 31.568 80.5005 32.12 79.5405 32.488L82.7805 37H80.2605ZM76.5645 31.048C77.7485 31.048 78.6445 30.8 79.2525 30.304C79.8765 29.808 80.1885 29.096 80.1885 28.168C80.1885 27.24 79.8765 26.528 79.2525 26.032C78.6445 25.536 77.7485 25.288 76.5645 25.288H73.4685V31.048H76.5645ZM92.4017 37.192C91.0097 37.192 89.7457 36.888 88.6097 36.28C87.4737 35.672 86.5857 34.84 85.9457 33.784C85.3057 32.712 84.9857 31.512 84.9857 30.184C84.9857 28.856 85.3057 27.664 85.9457 26.608C86.5857 25.536 87.4737 24.696 88.6097 24.088C89.7457 23.48 91.0097 23.176 92.4017 23.176C93.8097 23.176 95.0737 23.48 96.1937 24.088C97.3297 24.696 98.2177 25.536 98.8577 26.608C99.4977 27.664 99.8177 28.856 99.8177 30.184C99.8177 31.512 99.4977 32.712 98.8577 33.784C98.2177 34.84 97.3297 35.672 96.1937 36.28C95.0737 36.888 93.8097 37.192 92.4017 37.192ZM92.4017 35.176C93.3617 35.176 94.2257 34.96 94.9937 34.528C95.7617 34.096 96.3617 33.504 96.7937 32.752C97.2417 32 97.4657 31.144 97.4657 30.184C97.4657 29.224 97.2417 28.368 96.7937 27.616C96.3617 26.864 95.7617 26.272 94.9937 25.84C94.2257 25.408 93.3617 25.192 92.4017 25.192C91.4417 25.192 90.5777 25.408 89.8097 25.84C89.0417 26.272 88.4337 26.864 87.9857 27.616C87.5537 28.368 87.3377 29.224 87.3377 30.184C87.3377 31.144 87.5537 32 87.9857 32.752C88.4337 33.504 89.0417 34.096 89.8097 34.528C90.5777 34.96 91.4417 35.176 92.4017 35.176ZM112.779 29.92C113.595 30.144 114.219 30.544 114.651 31.12C115.099 31.696 115.323 32.424 115.323 33.304C115.323 34.488 114.859 35.4 113.931 36.04C113.019 36.68 111.683 37 109.923 37H103.203V23.368H109.539C111.155 23.368 112.403 23.688 113.283 24.328C114.163 24.952 114.603 25.808 114.603 26.896C114.603 27.6 114.443 28.208 114.123 28.72C113.803 29.232 113.355 29.632 112.779 29.92ZM105.531 25.144V29.224H109.299C110.243 29.224 110.971 29.048 111.483 28.696C112.011 28.344 112.275 27.84 112.275 27.184C112.275 26.512 112.019 26.008 111.507 25.672C110.995 25.32 110.259 25.144 109.299 25.144H105.531ZM109.803 35.224C111.915 35.224 112.971 34.52 112.971 33.112C112.971 31.704 111.915 31 109.803 31H105.531V35.224H109.803ZM128.872 35.056V37H118.648V23.368H128.608V25.288H120.976V29.128H127.768V31.024H120.976V35.056H128.872ZM138.386 37.192C136.994 37.192 135.73 36.888 134.594 36.28C133.474 35.672 132.594 34.84 131.954 33.784C131.314 32.712 130.994 31.512 130.994 30.184C130.994 28.856 131.314 27.664 131.954 26.608C132.594 25.536 133.474 24.696 134.594 24.088C135.73 23.48 136.994 23.176 138.386 23.176C140.738 23.176 142.53 23.888 143.762 25.312L142.273 26.824C141.25 25.736 139.978 25.192 138.458 25.192C137.482 25.192 136.602 25.408 135.818 25.84C135.05 26.256 134.442 26.848 133.994 27.616C133.562 28.368 133.346 29.224 133.346 30.184C133.346 31.128 133.562 31.984 133.994 32.752C134.442 33.504 135.05 34.096 135.818 34.528C136.602 34.96 137.482 35.176 138.458 35.176C139.962 35.176 141.234 34.624 142.273 33.52L143.762 35.032C142.514 36.472 140.722 37.192 138.386 37.192ZM152.683 37.192C151.291 37.192 150.027 36.888 148.891 36.28C147.755 35.672 146.867 34.84 146.227 33.784C145.587 32.712 145.267 31.512 145.267 30.184C145.267 28.856 145.587 27.664 146.227 26.608C146.867 25.536 147.755 24.696 148.891 24.088C150.027 23.48 151.291 23.176 152.683 23.176C154.091 23.176 155.355 23.48 156.475 24.088C157.611 24.696 158.499 25.536 159.139 26.608C159.779 27.664 160.099 28.856 160.099 30.184C160.099 31.512 159.779 32.712 159.139 33.784C158.499 34.84 157.611 35.672 156.475 36.28C155.355 36.888 154.091 37.192 152.683 37.192ZM152.683 35.176C153.643 35.176 154.507 34.96 155.275 34.528C156.043 34.096 156.643 33.504 157.075 32.752C157.523 32 157.747 31.144 157.747 30.184C157.747 29.224 157.523 28.368 157.075 27.616C156.643 26.864 156.043 26.272 155.275 25.84C154.507 25.408 153.643 25.192 152.683 25.192C151.723 25.192 150.859 25.408 150.091 25.84C149.323 26.272 148.715 26.864 148.267 27.616C147.835 28.368 147.619 29.224 147.619 30.184C147.619 31.144 147.835 32 148.267 32.752C148.715 33.504 149.323 34.096 150.091 34.528C150.859 34.96 151.723 35.176 152.683 35.176ZM175.604 23.368V37H173.684L165.812 27.376V37H163.484V23.368H165.404L173.276 33.04V23.368H175.604ZM184.25 37.192C183.194 37.192 182.162 37.048 181.154 36.76C180.162 36.456 179.386 36.056 178.826 35.56L179.738 33.736C180.282 34.184 180.962 34.544 181.778 34.816C182.61 35.088 183.466 35.224 184.346 35.224C185.418 35.224 186.202 35.048 186.698 34.696C187.21 34.344 187.466 33.888 187.466 33.328C187.466 32.896 187.314 32.544 187.01 32.272C186.722 32 186.354 31.792 185.906 31.648C185.458 31.504 184.85 31.352 184.082 31.192C183.042 30.968 182.194 30.736 181.538 30.496C180.898 30.256 180.346 29.88 179.882 29.368C179.434 28.84 179.21 28.128 179.21 27.232C179.21 26.016 179.698 25.04 180.674 24.304C181.666 23.552 183.01 23.176 184.706 23.176C185.57 23.176 186.402 23.28 187.202 23.488C188.018 23.68 188.714 23.968 189.29 24.352L188.45 26.224C187.41 25.504 186.138 25.144 184.634 25.144C183.594 25.144 182.818 25.328 182.306 25.696C181.794 26.048 181.538 26.512 181.538 27.088C181.538 27.52 181.682 27.872 181.97 28.144C182.274 28.416 182.65 28.624 183.098 28.768C183.562 28.912 184.178 29.064 184.946 29.224C186.002 29.464 186.842 29.704 187.466 29.944C188.106 30.168 188.65 30.536 189.098 31.048C189.562 31.56 189.794 32.248 189.794 33.112C189.794 34.36 189.298 35.352 188.306 36.088C187.33 36.824 185.978 37.192 184.25 37.192ZM198.848 37.192C196.976 37.192 195.512 36.664 194.456 35.608C193.4 34.552 192.872 33.072 192.872 31.168V23.368H195.2V31.12C195.2 32.448 195.512 33.456 196.136 34.144C196.76 34.832 197.672 35.176 198.872 35.176C200.056 35.176 200.96 34.832 201.584 34.144C202.224 33.456 202.544 32.448 202.544 31.12V23.368H204.824V31.168C204.824 33.072 204.296 34.552 203.24 35.608C202.184 36.664 200.72 37.192 198.848 37.192ZM209.328 23.368H211.656V35.056H218.976V37H209.328V23.368ZM222.346 25.288H217.69V23.368H229.33V25.288H224.674V37H222.346V25.288ZM237.326 23.368C239.134 23.368 240.558 23.792 241.598 24.64C242.638 25.488 243.158 26.664 243.158 28.168C243.158 29.688 242.638 30.872 241.598 31.72C240.558 32.568 239.134 32.992 237.326 32.992H234.086V37H231.758V23.368H237.326ZM237.182 31.048C238.366 31.048 239.262 30.8 239.87 30.304C240.494 29.808 240.806 29.096 240.806 28.168C240.806 27.24 240.494 26.528 239.87 26.032C239.262 25.536 238.366 25.288 237.182 25.288H234.086V31.048H237.182ZM255.831 37L252.903 32.92C252.775 32.936 252.567 32.944 252.279 32.944H249.039V37H246.711V23.368H252.279C254.087 23.368 255.511 23.792 256.551 24.64C257.591 25.488 258.111 26.664 258.111 28.168C258.111 29.208 257.847 30.096 257.319 30.832C256.807 31.568 256.071 32.12 255.111 32.488L258.351 37H255.831ZM252.135 31.048C253.319 31.048 254.215 30.8 254.823 30.304C255.447 29.808 255.759 29.096 255.759 28.168C255.759 27.24 255.447 26.528 254.823 26.032C254.215 25.536 253.319 25.288 252.135 25.288H249.039V31.048H252.135ZM267.972 37.192C266.58 37.192 265.316 36.888 264.18 36.28C263.044 35.672 262.156 34.84 261.516 33.784C260.876 32.712 260.556 31.512 260.556 30.184C260.556 28.856 260.876 27.664 261.516 26.608C262.156 25.536 263.044 24.696 264.18 24.088C265.316 23.48 266.58 23.176 267.972 23.176C269.38 23.176 270.644 23.48 271.764 24.088C272.9 24.696 273.788 25.536 274.428 26.608C275.068 27.664 275.388 28.856 275.388 30.184C275.388 31.512 275.068 32.712 274.428 33.784C273.788 34.84 272.9 35.672 271.764 36.28C270.644 36.888 269.38 37.192 267.972 37.192ZM267.972 35.176C268.932 35.176 269.796 34.96 270.564 34.528C271.332 34.096 271.932 33.504 272.364 32.752C272.812 32 273.036 31.144 273.036 30.184C273.036 29.224 272.812 28.368 272.364 27.616C271.932 26.864 271.332 26.272 270.564 25.84C269.796 25.408 268.932 25.192 267.972 25.192C267.012 25.192 266.148 25.408 265.38 25.84C264.612 26.272 264.004 26.864 263.556 27.616C263.124 28.368 262.908 29.224 262.908 30.184C262.908 31.144 263.124 32 263.556 32.752C264.004 33.504 264.612 34.096 265.38 34.528C266.148 34.96 267.012 35.176 267.972 35.176Z" fill="white"/>
</svg>
