<svg width="50" height="50" viewBox="0 0 50 50" fill="none" xmlns="http://www.w3.org/2000/svg">
<g clip-path="url(#clip0_49_945)">
<path d="M47.2222 25.0001C47.2222 20.6049 45.9189 16.3085 43.477 12.6541C41.0352 8.99963 37.5646 6.15136 33.504 4.46941C29.4434 2.78746 24.9753 2.34739 20.6646 3.20484C16.3539 4.06229 12.3943 6.17875 9.28646 9.28658C6.17863 12.3944 4.06216 16.354 3.20471 20.6647C2.34726 24.9754 2.78734 29.4436 4.46928 33.5041C6.15123 37.5647 8.99951 41.0354 12.6539 43.4772C16.3084 45.919 20.6048 47.2223 24.9999 47.2223C30.8936 47.2223 36.546 44.881 40.7134 40.7136C44.8809 36.5461 47.2222 30.8938 47.2222 25.0001ZM5.5555 25.0001C5.5555 21.1543 6.6959 17.3949 8.83248 14.1973C10.9691 10.9997 14.0059 8.50744 17.5589 7.03574C21.1119 5.56404 25.0215 5.17897 28.7934 5.92924C32.5652 6.67951 36.0299 8.53141 38.7492 11.2508C41.4686 13.9701 43.3205 17.4348 44.0708 21.2066C44.821 24.9785 44.436 28.8881 42.9643 32.4411C41.4926 35.9941 39.0003 39.0309 35.8027 41.1675C32.6051 43.3041 28.8457 44.4445 24.9999 44.4445C19.843 44.4445 14.8972 42.3959 11.2506 38.7494C7.60411 35.1028 5.5555 30.1571 5.5555 25.0001Z" fill="#4A4A4A"/>
<path d="M38.5278 25.1111L27.9584 14.5416C27.8339 14.3962 27.6807 14.2782 27.5083 14.1948C27.336 14.1114 27.1484 14.0646 26.9571 14.0572C26.7658 14.0498 26.5751 14.082 26.3968 14.1519C26.2186 14.2217 26.0567 14.3276 25.9214 14.4629C25.786 14.5983 25.6801 14.7602 25.6103 14.9384C25.5405 15.1166 25.5082 15.3074 25.5156 15.4986C25.523 15.6899 25.5698 15.8776 25.6532 16.0499C25.7366 16.2222 25.8547 16.3755 26.0001 16.5L33.0834 23.6111H12.2501C11.8817 23.6111 11.5284 23.7574 11.268 24.0179C11.0075 24.2783 10.8612 24.6316 10.8612 25C10.8612 25.3683 11.0075 25.7216 11.268 25.9821C11.5284 26.2425 11.8817 26.3889 12.2501 26.3889H33.3334L26.0001 33.7222C25.8547 33.8467 25.7366 33.9999 25.6532 34.1722C25.5698 34.3445 25.523 34.5322 25.5156 34.7235C25.5082 34.9148 25.5405 35.1055 25.6103 35.2837C25.6801 35.462 25.786 35.6238 25.9214 35.7592C26.0567 35.8946 26.2186 36.0005 26.3968 36.0703C26.5751 36.1401 26.7658 36.1723 26.9571 36.165C27.1484 36.1576 27.336 36.1107 27.5083 36.0274C27.6807 35.944 27.8339 35.8259 27.9584 35.6805L38.5278 25.1111Z" fill="#4A4A4A"/>
</g>
<defs>
<clipPath id="clip0_49_945">
<rect width="50" height="50" fill="white" transform="matrix(0 1 -1 0 50 0)"/>
</clipPath>
</defs>
</svg>
